<?xml version="1.0" encoding="UTF-8" standalone="no"?>
<!-- Created with Inkscape (http://www.inkscape.org/) -->

<svg
   xmlns:dc="http://purl.org/dc/elements/1.1/"
   xmlns:cc="http://creativecommons.org/ns#"
   xmlns:rdf="http://www.w3.org/1999/02/22-rdf-syntax-ns#"
   xmlns:svg="http://www.w3.org/2000/svg"
   xmlns="http://www.w3.org/2000/svg"
   xmlns:sodipodi="http://sodipodi.sourceforge.net/DTD/sodipodi-0.dtd"
   xmlns:inkscape="http://www.inkscape.org/namespaces/inkscape"
   width="19.351971mm"
   height="17.931444mm"
   viewBox="0 0 19.351971 17.931444"
   version="1.1"
   id="svg8"
   sodipodi:docname="seatbelt.svg"
   inkscape:version="0.92.2 5c3e80d, 2017-08-06">
  <defs
     id="defs2">
    <style
       type="text/css"
       id="style720">
   
    .fil0 {fill:black}
   
  </style>
  </defs>
  <sodipodi:namedview
     id="base"
     pagecolor="#ffffff"
     bordercolor="#666666"
     borderopacity="1.0"
     inkscape:pageopacity="0.0"
     inkscape:pageshadow="2"
     inkscape:zoom="1.979899"
     inkscape:cx="377.40345"
     inkscape:cy="-21.9952"
     inkscape:document-units="mm"
     inkscape:current-layer="layer1"
     showgrid="false"
     inkscape:window-width="1920"
     inkscape:window-height="1035"
     inkscape:window-x="3600"
     inkscape:window-y="1"
     inkscape:window-maximized="1" />
  <metadata
     id="metadata5">
    <rdf:RDF>
      <cc:Work
         rdf:about="">
        <dc:format>image/svg+xml</dc:format>
        <dc:type
           rdf:resource="http://purl.org/dc/dcmitype/StillImage" />
        <dc:title></dc:title>
      </cc:Work>
    </rdf:RDF>
  </metadata>
  <g
     inkscape:label="Layer 1"
     inkscape:groupmode="layer"
     id="layer1"
     transform="translate(-7.5971358,-12.857751)">
    <g
       id="g395"
       transform="matrix(0.19741175,0.17616169,-0.17616169,0.19741175,16.21812,3.1250597)">
      <g
         id="g376">
        <path
           id="path372"
           d="m 9,58.4 h 9.9 c 0.4,0.6 0.9,1.2 1.6,1.7 l 4.9,3.3 c 0.5,0.4 1.2,0.5 1.8,0.5 h 12.4 c 0.6,0 1.1,-0.5 1.1,-1.1 V 58.4 41.7 37.2 c 0,-0.6 -0.5,-1.1 -1.1,-1.1 H 27.2 c -0.6,0 -1.3,0.2 -1.8,0.5 L 20.5,40 c -0.7,0.4 -1.2,1 -1.6,1.7 H 9 c -0.7,0 -1.3,0.6 -1.3,1.3 v 14 c 0,0.8 0.6,1.4 1.3,1.4 z"
           inkscape:connector-curvature="0" />
        <path
           id="path374"
           d="M 72.8,36.2 H 60.4 c -0.6,0 -1.1,0.5 -1.1,1.1 v 4.4 H 48.1 c -1.2,0 -2.2,1 -2.2,2.2 v 12.3 c 0,1.2 1,2.2 2.2,2.2 h 11.2 v 4.5 c 0,0.6 0.5,1.1 1.1,1.1 h 12.4 c 0.6,0 1.3,-0.2 1.8,-0.5 l 4.9,-3.3 c 0.7,-0.4 1.2,-1 1.6,-1.7 H 91 c 0.7,0 1.3,-0.6 1.3,-1.3 V 43 c 0,-0.7 -0.6,-1.3 -1.3,-1.3 H 81.1 C 80.7,41.1 80.2,40.5 79.5,40 L 74.6,36.7 C 74,36.4 73.4,36.2 72.8,36.2 Z M 55.2,53.7 c 0,0.6 -0.5,1.1 -1.1,1.1 h -3 C 50.5,54.8 50,54.3 50,53.7 v -7.3 c 0,-0.6 0.5,-1.1 1.1,-1.1 h 3 c 0.6,0 1.1,0.5 1.1,1.1 z"
           inkscape:connector-curvature="0" />
      </g>
    </g>
  </g>
</svg>
