<?xml version="1.0" encoding="UTF-8" standalone="no"?>
<!-- Created with Inkscape (http://www.inkscape.org/) -->

<svg
   xmlns:dc="http://purl.org/dc/elements/1.1/"
   xmlns:cc="http://creativecommons.org/ns#"
   xmlns:rdf="http://www.w3.org/1999/02/22-rdf-syntax-ns#"
   xmlns:svg="http://www.w3.org/2000/svg"
   xmlns="http://www.w3.org/2000/svg"
   xmlns:sodipodi="http://sodipodi.sourceforge.net/DTD/sodipodi-0.dtd"
   xmlns:inkscape="http://www.inkscape.org/namespaces/inkscape"
   width="16.284151mm"
   height="19.541391mm"
   viewBox="0 0 16.284151 19.541391"
   version="1.1"
   id="svg8"
   sodipodi:docname="silence.svg"
   inkscape:version="0.92.2 5c3e80d, 2017-08-06">
  <defs
     id="defs2">
    <style
       type="text/css"
       id="style720">
   
    .fil0 {fill:black}
   
  </style>
  </defs>
  <sodipodi:namedview
     id="base"
     pagecolor="#ffffff"
     bordercolor="#666666"
     borderopacity="1.0"
     inkscape:pageopacity="0.0"
     inkscape:pageshadow="2"
     inkscape:zoom="1.979899"
     inkscape:cx="65.03007"
     inkscape:cy="-36.660384"
     inkscape:document-units="mm"
     inkscape:current-layer="layer1"
     showgrid="false"
     inkscape:window-width="1920"
     inkscape:window-height="1035"
     inkscape:window-x="3600"
     inkscape:window-y="1"
     inkscape:window-maximized="1" />
  <metadata
     id="metadata5">
    <rdf:RDF>
      <cc:Work
         rdf:about="">
        <dc:format>image/svg+xml</dc:format>
        <dc:type
           rdf:resource="http://purl.org/dc/dcmitype/StillImage" />
        <dc:title></dc:title>
      </cc:Work>
    </rdf:RDF>
  </metadata>
  <g
     inkscape:label="Layer 1"
     inkscape:groupmode="layer"
     id="layer1"
     transform="translate(-64.571296,-10.253799)">
    <g
       id="g209"
       transform="matrix(0.19541294,0,0,0.19541294,64.571296,10.253897)">
      <path
         id="path192"
         d="M 2.083,100 C 0.933,100 0,99.068 0,97.917 V 81.251 C 0,80.1 0.933,79.168 2.083,79.168 h 8.333 c 9.228,0 12.5,-3.271 12.5,-12.5 0,-0.452 0.146,-0.892 0.417,-1.249 l 4.516,-6.022 -3.508,-1.172 c -0.851,-0.28 -1.424,-1.078 -1.424,-1.973 0,-0.899 0.574,-1.693 1.424,-1.978 l 3.508,-1.168 -4.516,-6.022 C 22.859,46.453 22.783,45.607 23.136,44.903 23.489,44.195 24.21,43.752 25,43.752 h 6.25 c 0.171,0.012 1.714,0.077 2.382,-0.789 0.633,-0.822 0.564,-2.531 -0.192,-4.806 C 30.525,29.417 19.041,3.186 18.925,2.921 18.463,1.867 18.944,0.638 19.997,0.176 c 1.052,-0.464 2.284,0.019 2.745,1.072 0.475,1.084 11.677,26.671 14.651,35.594 1.254,3.768 1.087,6.697 -0.496,8.708 -2.043,2.6 -5.438,2.396 -5.822,2.359 l -1.913,0.004 3.754,5.005 c 0.402,0.533 0.521,1.229 0.322,1.868 -0.199,0.643 -0.695,1.143 -1.33,1.354 l -0.321,0.11 0.321,0.105 c 0.635,0.212 1.13,0.716 1.33,1.354 0.2,0.638 0.08,1.335 -0.322,1.872 l -5.839,7.788 c -0.208,11.03 -5.371,15.962 -16.66,15.962 H 4.167 V 97.914 C 4.167,99.068 3.234,100 2.083,100 Z"
         inkscape:connector-curvature="0"
         style="fill:#000000" />
      <circle
         id="circle194"
         r="4.1669998"
         cy="20.836"
         cx="10.417"
         style="fill:#000000" />
      <path
         id="path196"
         d="m 74.998,100 c -1.151,0 -2.083,-0.932 -2.083,-2.083 0,-3.536 1.6,-5.916 3.144,-8.215 1.597,-2.376 3.106,-4.622 3.106,-8.451 v -12.5 c 0,-1.151 -0.936,-2.083 -2.083,-2.083 -1.147,0 -2.084,0.932 -2.084,2.083 0,1.151 -0.932,2.083 -2.083,2.083 -1.151,0 -2.083,-0.932 -2.083,-2.083 v -2.083 c 0,-1.151 -0.936,-2.083 -2.083,-2.083 -1.147,0 -2.084,0.932 -2.084,2.083 0,1.151 -0.932,2.083 -2.083,2.083 -1.151,0 -2.083,-0.932 -2.083,-2.083 v -2.083 c 0,-1.151 -0.937,-2.084 -2.084,-2.084 -1.146,0 -2.083,0.933 -2.083,2.084 0,1.151 -0.933,2.083 -2.083,2.083 -1.15,0 -2.083,-0.932 -2.083,-2.083 V 41.669 c 0,-1.152 -0.936,-2.084 -2.084,-2.084 -1.148,0 -2.083,0.932 -2.083,2.084 v 39.582 c 0,2.547 1.373,4.838 2.828,7.259 1.604,2.673 3.422,5.704 3.422,9.407 0,1.151 -0.933,2.083 -2.083,2.083 -1.15,0 -2.084,-0.932 -2.084,-2.083 0,-2.547 -1.373,-4.838 -2.828,-7.263 C 47.65,87.98 45.832,84.953 45.832,81.251 V 41.669 c 0,-3.446 2.804,-6.25 6.25,-6.25 3.446,0 6.25,2.804 6.25,6.25 v 17.02 c 0.651,-0.228 1.354,-0.354 2.083,-0.354 2.21,0 4.155,1.151 5.268,2.889 0.905,-0.513 1.951,-0.806 3.066,-0.806 2.209,0 4.154,1.151 5.267,2.889 0.905,-0.513 1.951,-0.806 3.066,-0.806 3.446,0 6.25,2.804 6.25,6.25 v 12.5 c 0,5.099 -2.116,8.247 -3.815,10.778 -1.36,2.022 -2.435,3.621 -2.435,5.888 0,1.151 -0.932,2.083 -2.084,2.083 z"
         inkscape:connector-curvature="0"
         style="fill:#000000" />
    </g>
  </g>
</svg>
