<?xml version="1.0" encoding="UTF-8" standalone="no"?>
<!-- Created with Inkscape (http://www.inkscape.org/) -->

<svg
   xmlns:dc="http://purl.org/dc/elements/1.1/"
   xmlns:cc="http://creativecommons.org/ns#"
   xmlns:rdf="http://www.w3.org/1999/02/22-rdf-syntax-ns#"
   xmlns:svg="http://www.w3.org/2000/svg"
   xmlns="http://www.w3.org/2000/svg"
   xmlns:sodipodi="http://sodipodi.sourceforge.net/DTD/sodipodi-0.dtd"
   xmlns:inkscape="http://www.inkscape.org/namespaces/inkscape"
   width="28.020639mm"
   height="21.015478mm"
   viewBox="0 0 28.020639 21.015478"
   version="1.1"
   id="svg8"
   sodipodi:docname="videocamera.svg"
   inkscape:version="0.92.2 5c3e80d, 2017-08-06">
  <defs
     id="defs2">
    <style
       type="text/css"
       id="style720">
   
    .fil0 {fill:black}
   
  </style>
  </defs>
  <sodipodi:namedview
     id="base"
     pagecolor="#ffffff"
     bordercolor="#666666"
     borderopacity="1.0"
     inkscape:pageopacity="0.0"
     inkscape:pageshadow="2"
     inkscape:zoom="1.979899"
     inkscape:cx="93.69987"
     inkscape:cy="-49.086019"
     inkscape:document-units="mm"
     inkscape:current-layer="layer1"
     showgrid="false"
     inkscape:window-width="1920"
     inkscape:window-height="1035"
     inkscape:window-x="3600"
     inkscape:window-y="1"
     inkscape:window-maximized="1" />
  <metadata
     id="metadata5">
    <rdf:RDF>
      <cc:Work
         rdf:about="">
        <dc:format>image/svg+xml</dc:format>
        <dc:type
           rdf:resource="http://purl.org/dc/dcmitype/StillImage" />
        <dc:title></dc:title>
      </cc:Work>
    </rdf:RDF>
  </metadata>
  <g
     inkscape:label="Layer 1"
     inkscape:groupmode="layer"
     id="layer1"
     transform="translate(-171.51318,-8.6285699)">
    <path
       id="path799"
       d="m 187.85853,15.633731 h -14.01032 c -1.28895,0 -2.33503,1.046069 -2.33503,2.335022 v 9.340225 c 0,1.288953 1.04608,2.33507 2.33503,2.33507 h 14.01032 c 1.28894,0 2.33506,-1.046117 2.33506,-2.33507 v -9.340225 c 0,-1.288953 -1.04612,-2.335022 -2.33506,-2.335022 z m -1.16752,4.670092 h -11.67525 v -1.167518 h 11.67525 z M 181.1371,9.7960808 h 3.21884 v 2.3350702 h -2.45527 c -0.60012,0 -1.17686,0.231223 -1.6112,0.645618 l -0.54757,0.521893 h -3.55863 l 2.47632,-2.476319 c 0.65732,-0.657314 1.54816,-1.0262622 2.47751,-1.0262622 z m 11.46159,1.1675112 c 0,1.288953 -1.04608,2.33507 -2.33502,2.33507 H 185.5235 V 8.6285699 h 4.74017 c 1.28894,0 2.33502,1.0449304 2.33502,2.3350221 z m 6.93513,5.83765 v 11.675247 l -7.00516,-3.502574 v -4.670092 z"
       inkscape:connector-curvature="0"
       style="stroke-width:1.16752648" />
  </g>
</svg>
