<?xml version="1.0" encoding="utf-8"?>
<!-- Generator: Adobe Illustrator 16.0.0, SVG Export Plug-In . SVG Version: 6.00 Build 0)  -->
<!DOCTYPE svg PUBLIC "-//W3C//DTD SVG 1.1//EN" "http://www.w3.org/Graphics/SVG/1.1/DTD/svg11.dtd">
<svg version="1.1" id="Layer_1" xmlns="http://www.w3.org/2000/svg" xmlns:xlink="http://www.w3.org/1999/xlink" x="0px" y="0px"
	 width="462px" height="336px" viewBox="0 0 462 336" enable-background="new 0 0 462 336" xml:space="preserve">
<rect x="84" fill="#000000" width="42" height="42"/>
<rect x="126" y="42" fill="#000000" width="42" height="42"/>
<rect x="84" y="84" fill="#000000" width="42" height="42"/>
<rect x="42" y="126" fill="#000000" width="42" height="42"/>
<rect y="84" fill="#000000" width="42" height="42"/>
<rect y="42" fill="#000000" width="42" height="42"/>
<rect y="126" fill="#000000" width="42" height="42"/>
<rect x="42" y="168" fill="#000000" width="42" height="42"/>
<rect y="168" fill="#000000" width="42" height="42"/>
<rect x="42" y="210" fill="#000000" width="42" height="42"/>
<rect x="84" y="126" fill="#000000" width="42" height="42"/>
<rect x="84" y="168" fill="#000000" width="42" height="42"/>
<rect x="84" y="210" fill="#000000" width="42" height="42"/>
<rect x="84" y="252" fill="#000000" width="42" height="42"/>
<rect x="42" y="294" fill="#000000" width="42" height="42"/>
<rect x="126" y="84" fill="#000000" width="42" height="42"/>
<rect x="168" y="84" fill="#000000" width="42" height="42"/>
<rect x="210" y="84" fill="#000000" width="42" height="42"/>
<rect x="252" y="84" fill="#000000" width="42" height="42"/>
<rect x="294" y="42" fill="#000000" width="42" height="42"/>
<rect x="336" fill="#000000" width="42" height="42"/>
<rect x="294" y="84" fill="#000000" width="42" height="42"/>
<rect x="336" y="84" fill="#000000" width="42" height="42"/>
<rect x="420" y="84" fill="#000000" width="42" height="42"/>
<rect x="420" y="42" fill="#000000" width="42" height="42"/>
<rect x="420" y="126" fill="#000000" width="42" height="42"/>
<rect x="420" y="168" fill="#000000" width="42" height="42"/>
<rect x="336" y="126" fill="#000000" width="42" height="42"/>
<rect x="336" y="168" fill="#000000" width="42" height="42"/>
<rect x="336" y="210" fill="#000000" width="42" height="42"/>
<rect x="378" y="126" fill="#000000" width="42" height="42"/>
<rect x="378" y="168" fill="#000000" width="42" height="42"/>
<rect x="378" y="210" fill="#000000" width="42" height="42"/>
<rect x="336" y="252" fill="#000000" width="42" height="42"/>
<rect x="378" y="294" fill="#000000" width="42" height="42"/>
<rect x="126" y="210" fill="#000000" width="42" height="42"/>
<rect x="168" y="210" fill="#000000" width="42" height="42"/>
<rect x="210" y="210" fill="#000000" width="42" height="42"/>
<rect x="252" y="210" fill="#000000" width="42" height="42"/>
<rect x="294" y="210" fill="#000000" width="42" height="42"/>
<rect x="126" y="168" fill="#000000" width="42" height="42"/>
<rect x="168" y="168" fill="#000000" width="42" height="42"/>
<rect x="210" y="168" fill="#000000" width="42" height="42"/>
<rect x="252" y="168" fill="#000000" width="42" height="42"/>
<rect x="294" y="168" fill="#000000" width="42" height="42"/>
<rect x="168" y="126" fill="#000000" width="42" height="42"/>
<rect x="210" y="126" fill="#000000" width="42" height="42"/>
<rect x="252" y="126" fill="#000000" width="42" height="42"/>
</svg>
